<svg width="25" height="25" viewBox="0 0 25 25" fill="none" xmlns="http://www.w3.org/2000/svg">
<path d="M12.5 22.5C18.0228 22.5 22.5 18.0228 22.5 12.5C22.5 6.97715 18.0228 2.5 12.5 2.5C6.97715 2.5 2.5 6.97715 2.5 12.5C2.5 18.0228 6.97715 22.5 12.5 22.5Z" fill="#E5F4FF"/>
<path d="M12.5 18.5C15.8137 18.5 18.5 15.8137 18.5 12.5C18.5 9.18629 15.8137 6.5 12.5 6.5C9.18629 6.5 6.5 9.18629 6.5 12.5C6.5 15.8137 9.18629 18.5 12.5 18.5Z" fill="#E5F4FF"/>
<path d="M12.5 14.5C13.6046 14.5 14.5 13.6046 14.5 12.5C14.5 11.3954 13.6046 10.5 12.5 10.5C11.3954 10.5 10.5 11.3954 10.5 12.5C10.5 13.6046 11.3954 14.5 12.5 14.5Z" fill="#E5F4FF"/>
<path d="M12.5 22.5C18.0228 22.5 22.5 18.0228 22.5 12.5C22.5 6.97715 18.0228 2.5 12.5 2.5C6.97715 2.5 2.5 6.97715 2.5 12.5C2.5 18.0228 6.97715 22.5 12.5 22.5Z" stroke="#37AA57" stroke-width="2" stroke-linecap="round" stroke-linejoin="round"/>
<path d="M12.5 18.5C15.8137 18.5 18.5 15.8137 18.5 12.5C18.5 9.18629 15.8137 6.5 12.5 6.5C9.18629 6.5 6.5 9.18629 6.5 12.5C6.5 15.8137 9.18629 18.5 12.5 18.5Z" stroke="#37AA57" stroke-width="2" stroke-linecap="round" stroke-linejoin="round"/>
<path d="M12.5 14.5C13.6046 14.5 14.5 13.6046 14.5 12.5C14.5 11.3954 13.6046 10.5 12.5 10.5C11.3954 10.5 10.5 11.3954 10.5 12.5C10.5 13.6046 11.3954 14.5 12.5 14.5Z" stroke="#37AA57" stroke-width="2" stroke-linecap="round" stroke-linejoin="round"/>
</svg>
