<svg width="25" height="25" viewBox="0 0 25 25" fill="none" xmlns="http://www.w3.org/2000/svg">
<path d="M4.49999 14.5C4.31076 14.5006 4.12522 14.4476 3.96495 14.347C3.80467 14.2464 3.67623 14.1024 3.59454 13.9317C3.51286 13.761 3.48129 13.5706 3.50349 13.3827C3.5257 13.1947 3.60077 13.017 3.71999 12.87L13.62 2.67C13.6943 2.58428 13.7955 2.52635 13.907 2.50573C14.0185 2.4851 14.1337 2.50301 14.2337 2.5565C14.3337 2.60999 14.4126 2.69589 14.4573 2.8001C14.5021 2.90431 14.5101 3.02064 14.48 3.13L12.56 9.14999C12.5034 9.30152 12.4844 9.46452 12.5046 9.625C12.5248 9.78549 12.5837 9.93868 12.6761 10.0714C12.7685 10.2042 12.8918 10.3125 13.0353 10.3872C13.1788 10.4618 13.3382 10.5005 13.5 10.5H20.5C20.6892 10.4993 20.8748 10.5524 21.035 10.653C21.1953 10.7536 21.3238 10.8976 21.4054 11.0683C21.4871 11.239 21.5187 11.4294 21.4965 11.6173C21.4743 11.8053 21.3992 11.983 21.28 12.13L11.38 22.33C11.3057 22.4157 11.2045 22.4736 11.093 22.4943C10.9815 22.5149 10.8663 22.497 10.7663 22.4435C10.6663 22.39 10.5874 22.3041 10.5427 22.1999C10.4979 22.0957 10.4899 21.9793 10.52 21.87L12.44 15.85C12.4966 15.6985 12.5156 15.5355 12.4954 15.375C12.4752 15.2145 12.4163 15.0613 12.3239 14.9286C12.2315 14.7958 12.1082 14.6875 11.9647 14.6128C11.8212 14.5382 11.6617 14.4995 11.5 14.5H4.49999Z" fill="#FBA705" stroke="#FBA705" stroke-width="2" stroke-linecap="round" stroke-linejoin="round"/>
</svg>